<?xml version="1.0" standalone="no"?>
<!DOCTYPE svg PUBLIC "-//W3C//DTD SVG 20010904//EN"
 "http://www.w3.org/TR/2001/REC-SVG-20010904/DTD/svg10.dtd">
<svg version="1.0" xmlns="http://www.w3.org/2000/svg"
 width="260.000000pt" height="260.000000pt" viewBox="0 0 260.000000 260.000000"
 preserveAspectRatio="xMidYMid meet">
<metadata>
Created by potrace 1.14, written by Peter Selinger 2001-2017
</metadata>
<g transform="translate(0.000000,260.000000) scale(0.100000,-0.100000)"
fill="#000000" stroke="none">
<path d="M0 1300 l0 -1300 1300 0 1300 0 0 1300 0 1300 -1300 0 -1300 0 0
-1300z m1207 575 c88 -20 173 -65 212 -111 48 -60 93 -163 112 -264 23 -117
24 -162 3 -293 -31 -191 -118 -327 -250 -389 -79 -37 -152 -48 -330 -48 -124
0 -143 2 -157 18 -15 17 -17 68 -16 532 0 458 2 517 16 541 10 16 24 30 32 33
34 11 309 -3 378 -19z m846 -1 c110 -28 171 -83 209 -191 27 -77 22 -243 -10
-315 -54 -123 -192 -201 -366 -208 -8 0 -2 -331 6 -372 2 -10 -22 -14 -96 -16
-81 -2 -102 0 -117 14 -18 16 -19 42 -19 538 l0 521 27 29 27 29 138 -6 c76
-4 167 -14 201 -23z m-1416 -473 c-5 -517 -8 -559 -57 -667 -26 -57 -81 -118
-134 -149 -78 -46 -198 -42 -243 7 -24 27 -41 113 -21 106 85 -32 84 -32 123
-12 26 14 46 36 64 69 l26 50 3 519 c3 430 6 523 18 541 13 20 22 22 120 22
l105 0 -4 -486z"/>
<path d="M1006 1546 c-3 -136 -3 -344 0 -462 8 -245 3 -235 102 -189 139 65
198 215 189 485 -3 119 -8 156 -27 205 -45 120 -117 188 -213 201 l-44 6 -7
-246z"/>
<path d="M1885 1778 c-2 -7 -5 -127 -7 -265 l-3 -253 30 0 c48 1 106 48 138
111 25 50 28 67 28 150 1 105 -17 160 -67 215 -47 50 -109 72 -119 42z"/>
</g>
</svg>
